<?xml version="1.0" encoding="utf-8"?>
<!-- Generator: Adobe Illustrator 25.2.0, SVG Export Plug-In . SVG Version: 6.00 Build 0)  -->
<svg version="1.1" id="Layer_1" xmlns="http://www.w3.org/2000/svg" xmlns:xlink="http://www.w3.org/1999/xlink" x="0px" y="0px"
	 viewBox="0 0 841.89 841.89" style="enable-background:new 0 0 841.89 841.89;" xml:space="preserve">
<style type="text/css">
	.st0{fill:url(#SVGID_1_);}
	.st1{fill:url(#SVGID_2_);}
	.st2{fill:url(#SVGID_3_);}
</style>
<g>
	<linearGradient id="SVGID_1_" gradientUnits="userSpaceOnUse" x1="595.5597" y1="-21.2149" x2="-146.4219" y2="984.9277">
		<stop  offset="0" style="stop-color:#DB45A6"/>
		<stop  offset="1" style="stop-color:#345BDC"/>
	</linearGradient>
	<path class="st0" d="M785.36,48.08c0,0-128.2,139.85-244.74,147.62c-95.18,0.47-285.77-81.58-285.77-81.58L372.93,6l19.14,6.03
		c55.7,17.55,111.12,35.96,166.47,54.58C612.19,84.67,721.64,110.37,785.36,48.08z"/>
	<linearGradient id="SVGID_2_" gradientUnits="userSpaceOnUse" x1="704.1223" y1="58.8447" x2="-37.8594" y2="1064.9873">
		<stop  offset="0" style="stop-color:#DB45A6"/>
		<stop  offset="1" style="stop-color:#345BDC"/>
	</linearGradient>
	<path class="st1" d="M242.14,125.78c0,0-273.23,255.1-156.68,523.14S624.14,910.49,736.8,540.15c0,0-77.76,209.04-285.02,182.98
		c-142.95-17.97-253.11-133.51-270.61-276.52C165.44,318.11,194.95,178.47,242.14,125.78z"/>
	<linearGradient id="SVGID_3_" gradientUnits="userSpaceOnUse" x1="644.384" y1="14.7907" x2="-97.5976" y2="1020.9333">
		<stop  offset="0" style="stop-color:#DB45A6"/>
		<stop  offset="1" style="stop-color:#345BDC"/>
	</linearGradient>
	<polygon class="st2" points="425.5,518.14 282.74,628.73 282.74,298.65 425.5,186.91 	"/>
</g>
</svg>
